<?xml version="1.0" encoding="UTF-8"?>
<svg width="100" height="100" viewBox="0 0 100 100" xmlns="http://www.w3.org/2000/svg">
  <path d="M50,10 C30,10 15,25 15,45 C15,65 30,80 50,80 C70,80 85,65 85,45 C85,25 70,10 50,10 Z" fill="none" stroke="black" stroke-width="4"/>
  <path d="M50,10 C40,10 30,20 30,35 C30,50 40,60 50,60 C60,60 70,50 70,35 C70,20 60,10 50,10 Z" fill="none" stroke="black" stroke-width="4"/>
  <path d="M50,10 L50,80" fill="none" stroke="black" stroke-width="4"/>
  <path d="M30,25 L70,25" fill="none" stroke="black" stroke-width="4"/>
  <path d="M25,45 L75,45" fill="none" stroke="black" stroke-width="4"/>
  <path d="M30,65 L70,65" fill="none" stroke="black" stroke-width="4"/>
</svg>
